<svg width="779" height="773" viewBox="0 0 779 773" fill="none" xmlns="http://www.w3.org/2000/svg">
<path d="M0 20C0 8.9543 8.9543 0 20 0H739V747H20C8.95431 747 0 738.046 0 727V20Z" fill="#6C4AB6"/>
<path d="M0 20C0 8.9543 8.9543 0 20 0H739V747H20C8.95431 747 0 738.046 0 727V20Z" fill="url(#paint0_linear_920_17)" fill-opacity="0.2"/>
<path d="M0 20C0 8.9543 8.9543 0 20 0H739V747H20C8.95431 747 0 738.046 0 727V20Z" fill="url(#paint1_linear_920_17)" fill-opacity="0.7"/>
<g filter="url(#filter0_d_920_17)">
<path d="M0 280L7.63542 346.935C19.5821 388.104 13.8392 455.5 110.714 455.5L127.787 748H19.0726C8.5391 748 0 739.524 0 732.241V280Z" fill="#C369FA"/>
<path d="M0 280L7.63542 346.935C19.5821 388.104 13.8392 455.5 110.714 455.5L127.787 748H19.0726C8.5391 748 0 739.524 0 732.241V280Z" fill="url(#paint2_linear_920_17)"/>
<path d="M0 280L7.63542 346.935C19.5821 388.104 13.8392 455.5 110.714 455.5L127.787 748H19.0726C8.5391 748 0 739.524 0 732.241V280Z" fill="url(#paint3_linear_920_17)"/>
<path d="M110.714 455.5H233.835C347.889 466.656 352.184 522.163 401.337 570.052L360.473 748L127.787 748L110.714 455.5Z" fill="#C369FA"/>
<path d="M110.714 455.5H233.835C347.889 466.656 352.184 522.163 401.337 570.052L360.473 748L127.787 748L110.714 455.5Z" fill="url(#paint4_linear_920_17)"/>
<path d="M110.714 455.5H233.835C347.889 466.656 352.184 522.163 401.337 570.052L360.473 748L127.787 748L110.714 455.5Z" fill="url(#paint5_linear_920_17)"/>
<path d="M401.337 570.052L453.83 621.749C545.932 708.275 733 711.587 733 748H360.473L401.337 570.052Z" fill="#C369FA"/>
<path d="M401.337 570.052L453.83 621.749C545.932 708.275 733 711.587 733 748H360.473L401.337 570.052Z" fill="url(#paint6_linear_920_17)"/>
<path d="M401.337 570.052L453.83 621.749C545.932 708.275 733 711.587 733 748H360.473L401.337 570.052Z" fill="url(#paint7_linear_920_17)"/>
</g>
<g filter="url(#filter1_d_920_17)">
<path d="M0 482L7.69792 520.045C19.7424 543.444 13.9525 581.75 111.62 581.75L128.833 748H19.2287C8.609 748 0 726.305 0 722.166V482Z" fill="#C369FA"/>
<path d="M0 482L7.69792 520.045C19.7424 543.444 13.9525 581.75 111.62 581.75L128.833 748H19.2287C8.609 748 0 726.305 0 722.166V482Z" fill="url(#paint8_linear_920_17)"/>
<path d="M0 482L7.69792 520.045C19.7424 543.444 13.9525 581.75 111.62 581.75L128.833 748H19.2287C8.609 748 0 726.305 0 722.166V482Z" fill="url(#paint9_linear_920_17)"/>
<path d="M111.62 581.75H235.749C350.736 588.091 355.066 619.64 404.622 646.859L363.423 748L128.833 748L111.62 581.75Z" fill="#C369FA"/>
<path d="M111.62 581.75H235.749C350.736 588.091 355.066 619.64 404.622 646.859L363.423 748L128.833 748L111.62 581.75Z" fill="url(#paint10_linear_920_17)"/>
<path d="M111.62 581.75H235.749C350.736 588.091 355.066 619.64 404.622 646.859L363.423 748L128.833 748L111.62 581.75Z" fill="url(#paint11_linear_920_17)"/>
<path d="M404.622 646.859L457.545 676.242C550.401 725.421 739 727.304 739 748H363.423L404.622 646.859Z" fill="#C369FA"/>
<path d="M404.622 646.859L457.545 676.242C550.401 725.421 739 727.304 739 748H363.423L404.622 646.859Z" fill="url(#paint12_linear_920_17)"/>
<path d="M404.622 646.859L457.545 676.242C550.401 725.421 739 727.304 739 748H363.423L404.622 646.859Z" fill="url(#paint13_linear_920_17)"/>
</g>
<g filter="url(#filter2_d_920_17)">
<path d="M739.026 266.447L731.257 228.439C719.334 205.107 724.747 166.752 629.285 167.366L611.393 1.16947L737.48 1.18371C737.48 1.18371 737.456 22.0629 737.483 26.2036L739.026 266.447Z" fill="#C369FA"/>
<path d="M739.026 266.447L731.257 228.439C719.334 205.107 724.747 166.752 629.285 167.366L611.393 1.16947L737.48 1.18371C737.48 1.18371 737.456 22.0629 737.483 26.2036L739.026 266.447Z" fill="url(#paint14_linear_920_17)"/>
<path d="M739.026 266.447L731.257 228.439C719.334 205.107 724.747 166.752 629.285 167.366L611.393 1.16947L737.48 1.18371C737.48 1.18371 737.456 22.0629 737.483 26.2036L739.026 266.447Z" fill="url(#paint15_linear_920_17)"/>
<path d="M629.285 167.366L507.958 168.145C395.526 162.524 391.091 130.992 342.479 104.076L382.098 2.64226L611.393 1.16947L629.285 167.366Z" fill="#C369FA"/>
<path d="M629.285 167.366L507.958 168.145C395.526 162.524 391.091 130.992 342.479 104.076L382.098 2.64226L611.393 1.16947L629.285 167.366Z" fill="url(#paint16_linear_920_17)"/>
<path d="M629.285 167.366L507.958 168.145C395.526 162.524 391.091 130.992 342.479 104.076L382.098 2.64226L611.393 1.16947L629.285 167.366Z" fill="url(#paint17_linear_920_17)"/>
<path d="M342.479 104.076L290.562 75.0146C199.487 26.4024 15.1332 25.7036 15.0003 5.00008L382.098 2.64226L342.479 104.076Z" fill="#C369FA"/>
<path d="M342.479 104.076L290.562 75.0146C199.487 26.4024 15.1332 25.7036 15.0003 5.00008L382.098 2.64226L342.479 104.076Z" fill="url(#paint18_linear_920_17)"/>
<path d="M342.479 104.076L290.562 75.0146C199.487 26.4024 15.1332 25.7036 15.0003 5.00008L382.098 2.64226L342.479 104.076Z" fill="url(#paint19_linear_920_17)"/>
</g>
<g filter="url(#filter3_d_920_17)">
<circle cx="369" cy="185" r="101" fill="#6C4AB6"/>
<circle cx="369" cy="185" r="101" fill="url(#paint20_linear_920_17)"/>
<circle cx="369" cy="185" r="101" fill="url(#paint21_linear_920_17)"/>
</g>
<path d="M162.003 374L154.741 347.818H158.896L163.997 368.094H164.24L169.545 347.818H173.662L178.967 368.107H179.21L184.298 347.818H188.466L181.192 374H177.216L171.706 354.389H171.501L165.991 374H162.003ZM199.268 374V347.818H215.683V351.219H203.218V359.196H214.826V362.584H203.218V370.599H215.836V374H199.268ZM228.159 374V347.818H232.11V370.599H243.973V374H228.159ZM276.406 356.332H272.417C272.264 355.48 271.978 354.73 271.561 354.082C271.143 353.435 270.632 352.885 270.026 352.433C269.421 351.982 268.744 351.641 267.994 351.411C267.252 351.18 266.464 351.065 265.629 351.065C264.12 351.065 262.769 351.445 261.576 352.203C260.392 352.962 259.454 354.074 258.764 355.54C258.082 357.006 257.741 358.795 257.741 360.909C257.741 363.04 258.082 364.838 258.764 366.304C259.454 367.77 260.396 368.878 261.589 369.628C262.782 370.378 264.125 370.753 265.616 370.753C266.443 370.753 267.227 370.642 267.968 370.42C268.718 370.19 269.396 369.854 270.001 369.411C270.606 368.967 271.117 368.426 271.535 367.787C271.961 367.139 272.255 366.398 272.417 365.562L276.406 365.575C276.193 366.862 275.779 368.047 275.166 369.129C274.561 370.203 273.781 371.132 272.826 371.916C271.88 372.692 270.798 373.293 269.579 373.719C268.36 374.145 267.031 374.358 265.59 374.358C263.323 374.358 261.303 373.821 259.531 372.747C257.758 371.665 256.36 370.118 255.338 368.107C254.323 366.095 253.816 363.696 253.816 360.909C253.816 358.114 254.328 355.714 255.35 353.712C256.373 351.7 257.771 350.158 259.544 349.084C261.316 348.001 263.332 347.46 265.59 347.46C266.98 347.46 268.275 347.661 269.477 348.061C270.687 348.453 271.774 349.033 272.737 349.8C273.7 350.558 274.497 351.487 275.127 352.587C275.758 353.678 276.184 354.926 276.406 356.332ZM311.076 360.909C311.076 363.705 310.564 366.108 309.541 368.119C308.519 370.122 307.117 371.665 305.336 372.747C303.563 373.821 301.547 374.358 299.289 374.358C297.022 374.358 294.997 373.821 293.216 372.747C291.443 371.665 290.046 370.118 289.023 368.107C288 366.095 287.489 363.696 287.489 360.909C287.489 358.114 288 355.714 289.023 353.712C290.046 351.7 291.443 350.158 293.216 349.084C294.997 348.001 297.022 347.46 299.289 347.46C301.547 347.46 303.563 348.001 305.336 349.084C307.117 350.158 308.519 351.7 309.541 353.712C310.564 355.714 311.076 358.114 311.076 360.909ZM307.164 360.909C307.164 358.778 306.818 356.984 306.128 355.527C305.446 354.061 304.509 352.953 303.316 352.203C302.131 351.445 300.789 351.065 299.289 351.065C297.78 351.065 296.434 351.445 295.249 352.203C294.064 352.953 293.127 354.061 292.436 355.527C291.755 356.984 291.414 358.778 291.414 360.909C291.414 363.04 291.755 364.838 292.436 366.304C293.127 367.761 294.064 368.869 295.249 369.628C296.434 370.378 297.78 370.753 299.289 370.753C300.789 370.753 302.131 370.378 303.316 369.628C304.509 368.869 305.446 367.761 306.128 366.304C306.818 364.838 307.164 363.04 307.164 360.909ZM323.201 347.818H327.995L336.33 368.17H336.637L344.972 347.818H349.766V374H346.007V355.054H345.765L338.043 373.962H334.924L327.202 355.041H326.959V374H323.201V347.818ZM362.709 374V347.818H379.124V351.219H366.66V359.196H378.267V362.584H366.66V370.599H379.277V374H362.709ZM407.037 351.219V347.818H427.3V351.219H419.131V374H415.193V351.219H407.037ZM460.595 360.909C460.595 363.705 460.084 366.108 459.061 368.119C458.038 370.122 456.636 371.665 454.855 372.747C453.082 373.821 451.067 374.358 448.808 374.358C446.541 374.358 444.517 373.821 442.736 372.747C440.963 371.665 439.565 370.118 438.543 368.107C437.52 366.095 437.008 363.696 437.008 360.909C437.008 358.114 437.52 355.714 438.543 353.712C439.565 351.7 440.963 350.158 442.736 349.084C444.517 348.001 446.541 347.46 448.808 347.46C451.067 347.46 453.082 348.001 454.855 349.084C456.636 350.158 458.038 351.7 459.061 353.712C460.084 355.714 460.595 358.114 460.595 360.909ZM456.683 360.909C456.683 358.778 456.338 356.984 455.648 355.527C454.966 354.061 454.028 352.953 452.835 352.203C451.65 351.445 450.308 351.065 448.808 351.065C447.3 351.065 445.953 351.445 444.768 352.203C443.584 352.953 442.646 354.061 441.956 355.527C441.274 356.984 440.933 358.778 440.933 360.909C440.933 363.04 441.274 364.838 441.956 366.304C442.646 367.761 443.584 368.869 444.768 369.628C445.953 370.378 447.3 370.753 448.808 370.753C450.308 370.753 451.65 370.378 452.835 369.628C454.028 368.869 454.966 367.761 455.648 366.304C456.338 364.838 456.683 363.04 456.683 360.909ZM489.448 374V347.818H493.398V360.321H493.717L504.699 347.818H509.672L499.112 359.605L509.71 374H504.955L496.492 362.303L493.398 365.857V374H489.448ZM536.972 356.089C536.725 355.314 536.392 354.619 535.975 354.006C535.565 353.384 535.075 352.855 534.504 352.42C533.933 351.977 533.281 351.641 532.548 351.411C531.824 351.18 531.027 351.065 530.158 351.065C528.683 351.065 527.354 351.445 526.169 352.203C524.985 352.962 524.047 354.074 523.357 355.54C522.675 356.997 522.334 358.783 522.334 360.896C522.334 363.018 522.679 364.812 523.369 366.278C524.06 367.744 525.006 368.857 526.208 369.615C527.409 370.374 528.777 370.753 530.311 370.753C531.735 370.753 532.975 370.463 534.031 369.884C535.097 369.304 535.919 368.486 536.499 367.429C537.087 366.364 537.381 365.111 537.381 363.67L538.404 363.862H530.912V360.602H541.203V363.581C541.203 365.78 540.735 367.689 539.797 369.308C538.868 370.919 537.581 372.163 535.936 373.041C534.3 373.919 532.425 374.358 530.311 374.358C527.942 374.358 525.862 373.812 524.073 372.722C522.291 371.631 520.902 370.084 519.905 368.081C518.908 366.07 518.409 363.683 518.409 360.922C518.409 358.834 518.699 356.959 519.279 355.297C519.858 353.635 520.672 352.224 521.72 351.065C522.777 349.898 524.017 349.007 525.44 348.393C526.872 347.771 528.436 347.46 530.132 347.46C531.547 347.46 532.864 347.669 534.083 348.087C535.31 348.504 536.401 349.097 537.355 349.864C538.318 350.631 539.115 351.543 539.746 352.599C540.377 353.648 540.803 354.811 541.024 356.089H536.972ZM567.698 354.696C567.561 353.486 566.999 352.548 566.01 351.884C565.022 351.21 563.777 350.874 562.277 350.874C561.203 350.874 560.274 351.044 559.49 351.385C558.706 351.717 558.097 352.178 557.662 352.766C557.236 353.345 557.023 354.006 557.023 354.747C557.023 355.369 557.168 355.906 557.458 356.358C557.756 356.81 558.144 357.189 558.621 357.496C559.107 357.794 559.627 358.045 560.181 358.25C560.735 358.446 561.267 358.608 561.779 358.736L564.335 359.401C565.171 359.605 566.027 359.882 566.905 360.232C567.783 360.581 568.597 361.041 569.347 361.612C570.097 362.183 570.702 362.891 571.162 363.734C571.631 364.578 571.865 365.588 571.865 366.764C571.865 368.247 571.482 369.564 570.715 370.714C569.956 371.865 568.852 372.773 567.404 373.438C565.963 374.102 564.22 374.435 562.175 374.435C560.215 374.435 558.519 374.124 557.087 373.501C555.655 372.879 554.534 371.997 553.725 370.855C552.915 369.705 552.468 368.341 552.382 366.764H556.345C556.422 367.71 556.729 368.499 557.266 369.129C557.811 369.751 558.506 370.216 559.35 370.523C560.202 370.821 561.135 370.97 562.149 370.97C563.266 370.97 564.259 370.795 565.128 370.446C566.006 370.088 566.696 369.594 567.199 368.963C567.702 368.324 567.953 367.578 567.953 366.726C567.953 365.95 567.732 365.315 567.289 364.821C566.854 364.327 566.262 363.918 565.512 363.594C564.77 363.27 563.931 362.984 562.993 362.737L559.899 361.893C557.803 361.322 556.141 360.483 554.914 359.375C553.695 358.267 553.085 356.801 553.085 354.977C553.085 353.469 553.495 352.152 554.313 351.027C555.131 349.902 556.239 349.028 557.637 348.406C559.034 347.776 560.611 347.46 562.367 347.46C564.139 347.46 565.703 347.771 567.058 348.393C568.422 349.016 569.496 349.872 570.28 350.963C571.064 352.045 571.473 353.29 571.507 354.696H567.698Z" fill="white"/>
<path d="M375.965 429V414.455H378.16V421.401H378.337L384.438 414.455H387.201L381.335 421.003L387.222 429H384.58L379.879 422.501L378.16 424.476V429H375.965ZM393.76 429V418.091H395.883V429H393.76ZM394.832 416.408C394.463 416.408 394.145 416.285 393.88 416.038C393.62 415.787 393.49 415.489 393.49 415.143C393.49 414.793 393.62 414.495 393.88 414.249C394.145 413.998 394.463 413.872 394.832 413.872C395.201 413.872 395.516 413.998 395.777 414.249C396.042 414.495 396.174 414.793 396.174 415.143C396.174 415.489 396.042 415.787 395.777 416.038C395.516 416.285 395.201 416.408 394.832 416.408ZM410.915 420.754L408.99 421.095C408.91 420.849 408.782 420.615 408.607 420.392C408.436 420.17 408.204 419.987 407.911 419.845C407.617 419.703 407.25 419.632 406.81 419.632C406.208 419.632 405.706 419.767 405.304 420.037C404.902 420.302 404.7 420.645 404.7 421.067C404.7 421.431 404.835 421.725 405.105 421.947C405.375 422.17 405.811 422.352 406.412 422.494L408.145 422.892C409.149 423.124 409.897 423.482 410.389 423.964C410.882 424.447 411.128 425.075 411.128 425.847C411.128 426.5 410.938 427.082 410.56 427.594C410.186 428.1 409.662 428.498 408.99 428.787C408.322 429.076 407.548 429.22 406.668 429.22C405.446 429.22 404.449 428.96 403.678 428.439C402.906 427.913 402.432 427.168 402.257 426.202L404.31 425.889C404.438 426.424 404.7 426.829 405.098 427.104C405.496 427.374 406.014 427.509 406.653 427.509C407.349 427.509 407.906 427.364 408.322 427.075C408.739 426.782 408.947 426.424 408.947 426.003C408.947 425.662 408.82 425.375 408.564 425.143C408.313 424.911 407.927 424.736 407.406 424.618L405.56 424.213C404.542 423.981 403.789 423.612 403.301 423.105C402.818 422.598 402.577 421.957 402.577 421.18C402.577 420.536 402.757 419.973 403.116 419.49C403.476 419.007 403.973 418.631 404.608 418.361C405.242 418.086 405.969 417.949 406.788 417.949C407.967 417.949 408.895 418.205 409.572 418.716C410.25 419.223 410.697 419.902 410.915 420.754ZM424.373 424.476V418.091H426.504V429H424.416V427.111H424.302C424.051 427.693 423.649 428.179 423.095 428.567C422.546 428.95 421.861 429.142 421.042 429.142C420.342 429.142 419.721 428.988 419.181 428.68C418.646 428.368 418.225 427.906 417.917 427.295C417.614 426.685 417.463 425.929 417.463 425.03V418.091H419.586V424.774C419.586 425.518 419.792 426.109 420.204 426.55C420.616 426.99 421.151 427.21 421.809 427.21C422.207 427.21 422.602 427.111 422.995 426.912C423.393 426.713 423.722 426.412 423.983 426.01C424.248 425.607 424.378 425.096 424.373 424.476ZM437.931 433.318C437.065 433.318 436.319 433.205 435.694 432.977C435.074 432.75 434.567 432.449 434.174 432.075C433.781 431.701 433.487 431.292 433.293 430.847L435.119 430.094C435.246 430.302 435.417 430.522 435.63 430.754C435.848 430.991 436.141 431.192 436.511 431.358C436.885 431.524 437.365 431.607 437.952 431.607C438.757 431.607 439.423 431.41 439.948 431.017C440.474 430.629 440.737 430.009 440.737 429.156V427.011H440.602C440.474 427.243 440.289 427.501 440.048 427.786C439.811 428.07 439.484 428.316 439.067 428.524C438.651 428.732 438.109 428.837 437.441 428.837C436.579 428.837 435.803 428.635 435.112 428.233C434.425 427.826 433.88 427.227 433.478 426.436C433.08 425.641 432.881 424.663 432.881 423.503C432.881 422.343 433.078 421.348 433.471 420.52C433.869 419.691 434.413 419.057 435.104 418.616C435.796 418.171 436.579 417.949 437.455 417.949C438.132 417.949 438.679 418.062 439.096 418.29C439.513 418.512 439.837 418.773 440.069 419.071C440.306 419.369 440.488 419.632 440.616 419.859H440.772V418.091H442.853V429.241C442.853 430.179 442.635 430.948 442.2 431.55C441.764 432.151 441.174 432.596 440.431 432.885C439.692 433.174 438.859 433.318 437.931 433.318ZM437.91 427.075C438.521 427.075 439.037 426.933 439.458 426.649C439.884 426.36 440.206 425.948 440.424 425.413C440.647 424.874 440.758 424.227 440.758 423.474C440.758 422.741 440.649 422.094 440.431 421.536C440.213 420.977 439.894 420.541 439.472 420.229C439.051 419.911 438.53 419.753 437.91 419.753C437.271 419.753 436.738 419.919 436.312 420.25C435.886 420.577 435.564 421.022 435.346 421.585C435.133 422.149 435.026 422.778 435.026 423.474C435.026 424.189 435.135 424.817 435.353 425.357C435.571 425.896 435.893 426.318 436.319 426.621C436.75 426.924 437.28 427.075 437.91 427.075ZM457.876 420.754L455.951 421.095C455.871 420.849 455.743 420.615 455.567 420.392C455.397 420.17 455.165 419.987 454.871 419.845C454.578 419.703 454.211 419.632 453.771 419.632C453.169 419.632 452.667 419.767 452.265 420.037C451.862 420.302 451.661 420.645 451.661 421.067C451.661 421.431 451.796 421.725 452.066 421.947C452.336 422.17 452.772 422.352 453.373 422.494L455.106 422.892C456.11 423.124 456.858 423.482 457.35 423.964C457.843 424.447 458.089 425.075 458.089 425.847C458.089 426.5 457.899 427.082 457.521 427.594C457.147 428.1 456.623 428.498 455.951 428.787C455.283 429.076 454.509 429.22 453.629 429.22C452.407 429.22 451.41 428.96 450.638 428.439C449.867 427.913 449.393 427.168 449.218 426.202L451.271 425.889C451.398 426.424 451.661 426.829 452.059 427.104C452.457 427.374 452.975 427.509 453.614 427.509C454.31 427.509 454.867 427.364 455.283 427.075C455.7 426.782 455.908 426.424 455.908 426.003C455.908 425.662 455.781 425.375 455.525 425.143C455.274 424.911 454.888 424.736 454.367 424.618L452.521 424.213C451.503 423.981 450.75 423.612 450.262 423.105C449.779 422.598 449.538 421.957 449.538 421.18C449.538 420.536 449.718 419.973 450.077 419.49C450.437 419.007 450.934 418.631 451.569 418.361C452.203 418.086 452.93 417.949 453.749 417.949C454.928 417.949 455.856 418.205 456.533 418.716C457.21 419.223 457.658 419.902 457.876 420.754ZM467.598 429.241C466.907 429.241 466.282 429.114 465.723 428.858C465.165 428.598 464.722 428.221 464.395 427.729C464.073 427.236 463.912 426.633 463.912 425.918C463.912 425.302 464.031 424.795 464.267 424.398C464.504 424 464.824 423.685 465.226 423.453C465.629 423.221 466.078 423.046 466.576 422.928C467.073 422.809 467.579 422.719 468.096 422.658C468.749 422.582 469.279 422.52 469.686 422.473C470.094 422.421 470.39 422.338 470.574 422.224C470.759 422.111 470.851 421.926 470.851 421.67V421.621C470.851 421 470.676 420.52 470.326 420.179C469.98 419.838 469.464 419.668 468.777 419.668C468.062 419.668 467.499 419.826 467.087 420.143C466.68 420.456 466.398 420.804 466.242 421.188L464.246 420.733C464.483 420.07 464.828 419.535 465.283 419.128C465.742 418.716 466.27 418.418 466.867 418.233C467.463 418.044 468.091 417.949 468.749 417.949C469.185 417.949 469.646 418.001 470.134 418.105C470.626 418.205 471.086 418.389 471.512 418.659C471.943 418.929 472.295 419.315 472.57 419.817C472.845 420.314 472.982 420.96 472.982 421.756V429H470.908V427.509H470.823C470.685 427.783 470.48 428.053 470.205 428.318C469.93 428.583 469.578 428.804 469.147 428.979C468.716 429.154 468.2 429.241 467.598 429.241ZM468.06 427.537C468.647 427.537 469.149 427.421 469.566 427.189C469.987 426.957 470.307 426.654 470.525 426.28C470.747 425.901 470.858 425.496 470.858 425.065V423.659C470.783 423.735 470.636 423.806 470.418 423.872C470.205 423.934 469.961 423.988 469.686 424.036C469.412 424.078 469.144 424.118 468.884 424.156C468.623 424.189 468.406 424.218 468.23 424.241C467.819 424.294 467.442 424.381 467.101 424.504C466.765 424.627 466.495 424.805 466.292 425.037C466.093 425.264 465.993 425.567 465.993 425.946C465.993 426.472 466.187 426.869 466.576 427.139C466.964 427.404 467.459 427.537 468.06 427.537ZM494.196 418.091V419.795H488.237V418.091H494.196ZM489.835 415.477H491.958V425.797C491.958 426.209 492.02 426.519 492.143 426.727C492.266 426.931 492.425 427.071 492.619 427.146C492.818 427.217 493.033 427.253 493.265 427.253C493.436 427.253 493.585 427.241 493.713 427.217C493.841 427.194 493.94 427.175 494.011 427.161L494.395 428.915C494.271 428.962 494.096 429.009 493.869 429.057C493.642 429.109 493.358 429.137 493.017 429.142C492.458 429.152 491.937 429.052 491.454 428.844C490.971 428.635 490.581 428.313 490.282 427.878C489.984 427.442 489.835 426.895 489.835 426.237V415.477ZM503.719 429.241C503.028 429.241 502.403 429.114 501.844 428.858C501.286 428.598 500.843 428.221 500.516 427.729C500.194 427.236 500.033 426.633 500.033 425.918C500.033 425.302 500.152 424.795 500.388 424.398C500.625 424 500.945 423.685 501.347 423.453C501.75 423.221 502.2 423.046 502.697 422.928C503.194 422.809 503.701 422.719 504.217 422.658C504.87 422.582 505.4 422.52 505.808 422.473C506.215 422.421 506.511 422.338 506.695 422.224C506.88 422.111 506.972 421.926 506.972 421.67V421.621C506.972 421 506.797 420.52 506.447 420.179C506.101 419.838 505.585 419.668 504.898 419.668C504.183 419.668 503.62 419.826 503.208 420.143C502.801 420.456 502.519 420.804 502.363 421.188L500.367 420.733C500.604 420.07 500.95 419.535 501.404 419.128C501.863 418.716 502.391 418.418 502.988 418.233C503.585 418.044 504.212 417.949 504.87 417.949C505.306 417.949 505.767 418.001 506.255 418.105C506.747 418.205 507.207 418.389 507.633 418.659C508.064 418.929 508.416 419.315 508.691 419.817C508.966 420.314 509.103 420.96 509.103 421.756V429H507.029V427.509H506.944C506.807 427.783 506.601 428.053 506.326 428.318C506.051 428.583 505.699 428.804 505.268 428.979C504.837 429.154 504.321 429.241 503.719 429.241ZM504.181 427.537C504.768 427.537 505.27 427.421 505.687 427.189C506.108 426.957 506.428 426.654 506.646 426.28C506.868 425.901 506.979 425.496 506.979 425.065V423.659C506.904 423.735 506.757 423.806 506.539 423.872C506.326 423.934 506.082 423.988 505.808 424.036C505.533 424.078 505.265 424.118 505.005 424.156C504.745 424.189 504.527 424.218 504.352 424.241C503.94 424.294 503.563 424.381 503.222 424.504C502.886 424.627 502.616 424.805 502.413 425.037C502.214 425.264 502.114 425.567 502.114 425.946C502.114 426.472 502.308 426.869 502.697 427.139C503.085 427.404 503.58 427.537 504.181 427.537ZM516.102 429V414.455H518.225V419.859H518.353C518.476 419.632 518.654 419.369 518.886 419.071C519.118 418.773 519.44 418.512 519.852 418.29C520.264 418.062 520.808 417.949 521.485 417.949C522.366 417.949 523.152 418.171 523.843 418.616C524.535 419.062 525.077 419.703 525.47 420.541C525.868 421.379 526.066 422.388 526.066 423.567C526.066 424.746 525.87 425.757 525.477 426.599C525.084 427.437 524.544 428.084 523.858 428.538C523.171 428.988 522.387 429.213 521.507 429.213C520.844 429.213 520.302 429.102 519.88 428.879C519.464 428.657 519.137 428.396 518.9 428.098C518.663 427.8 518.481 427.535 518.353 427.303H518.176V429H516.102ZM518.183 423.545C518.183 424.312 518.294 424.985 518.517 425.562C518.739 426.14 519.061 426.592 519.483 426.919C519.904 427.241 520.42 427.402 521.031 427.402C521.665 427.402 522.196 427.234 522.622 426.898C523.048 426.557 523.37 426.095 523.588 425.513C523.81 424.93 523.922 424.275 523.922 423.545C523.922 422.826 523.813 422.179 523.595 421.607C523.382 421.034 523.06 420.581 522.629 420.25C522.203 419.919 521.67 419.753 521.031 419.753C520.415 419.753 519.895 419.911 519.468 420.229C519.047 420.546 518.727 420.989 518.51 421.557C518.292 422.125 518.183 422.788 518.183 423.545ZM535.626 429.241C534.934 429.241 534.309 429.114 533.751 428.858C533.192 428.598 532.749 428.221 532.423 427.729C532.101 427.236 531.94 426.633 531.94 425.918C531.94 425.302 532.058 424.795 532.295 424.398C532.531 424 532.851 423.685 533.254 423.453C533.656 423.221 534.106 423.046 534.603 422.928C535.1 422.809 535.607 422.719 536.123 422.658C536.776 422.582 537.307 422.52 537.714 422.473C538.121 422.421 538.417 422.338 538.602 422.224C538.786 422.111 538.879 421.926 538.879 421.67V421.621C538.879 421 538.703 420.52 538.353 420.179C538.007 419.838 537.491 419.668 536.805 419.668C536.09 419.668 535.526 419.826 535.114 420.143C534.707 420.456 534.425 420.804 534.269 421.188L532.273 420.733C532.51 420.07 532.856 419.535 533.31 419.128C533.77 418.716 534.298 418.418 534.894 418.233C535.491 418.044 536.118 417.949 536.776 417.949C537.212 417.949 537.674 418.001 538.161 418.105C538.654 418.205 539.113 418.389 539.539 418.659C539.97 418.929 540.323 419.315 540.597 419.817C540.872 420.314 541.009 420.96 541.009 421.756V429H538.935V427.509H538.85C538.713 427.783 538.507 428.053 538.232 428.318C537.958 428.583 537.605 428.804 537.174 428.979C536.743 429.154 536.227 429.241 535.626 429.241ZM536.087 427.537C536.674 427.537 537.176 427.421 537.593 427.189C538.014 426.957 538.334 426.654 538.552 426.28C538.774 425.901 538.886 425.496 538.886 425.065V423.659C538.81 423.735 538.663 423.806 538.445 423.872C538.232 423.934 537.988 423.988 537.714 424.036C537.439 424.078 537.172 424.118 536.911 424.156C536.651 424.189 536.433 424.218 536.258 424.241C535.846 424.294 535.469 424.381 535.129 424.504C534.792 424.627 534.522 424.805 534.319 425.037C534.12 425.264 534.021 425.567 534.021 425.946C534.021 426.472 534.215 426.869 534.603 427.139C534.991 427.404 535.486 427.537 536.087 427.537ZM549.961 422.523V429H547.838V418.091H549.876V419.866H550.011C550.262 419.289 550.655 418.825 551.19 418.474C551.73 418.124 552.409 417.949 553.228 417.949C553.972 417.949 554.623 418.105 555.181 418.418C555.74 418.725 556.173 419.185 556.481 419.795C556.789 420.406 556.943 421.161 556.943 422.061V429H554.819V422.317C554.819 421.526 554.613 420.908 554.201 420.463C553.789 420.013 553.224 419.788 552.504 419.788C552.011 419.788 551.574 419.895 551.19 420.108C550.811 420.321 550.511 420.634 550.288 421.045C550.07 421.453 549.961 421.945 549.961 422.523ZM568.365 433.318C567.498 433.318 566.752 433.205 566.127 432.977C565.507 432.75 565.001 432.449 564.608 432.075C564.215 431.701 563.921 431.292 563.727 430.847L565.552 430.094C565.68 430.302 565.85 430.522 566.064 430.754C566.281 430.991 566.575 431.192 566.944 431.358C567.318 431.524 567.799 431.607 568.386 431.607C569.191 431.607 569.856 431.41 570.382 431.017C570.907 430.629 571.17 430.009 571.17 429.156V427.011H571.035C570.907 427.243 570.723 427.501 570.481 427.786C570.244 428.07 569.918 428.316 569.501 428.524C569.084 428.732 568.542 428.837 567.875 428.837C567.013 428.837 566.236 428.635 565.545 428.233C564.859 427.826 564.314 427.227 563.912 426.436C563.514 425.641 563.315 424.663 563.315 423.503C563.315 422.343 563.511 421.348 563.904 420.52C564.302 419.691 564.847 419.057 565.538 418.616C566.229 418.171 567.013 417.949 567.889 417.949C568.566 417.949 569.113 418.062 569.529 418.29C569.946 418.512 570.27 418.773 570.502 419.071C570.739 419.369 570.922 419.632 571.049 419.859H571.206V418.091H573.287V429.241C573.287 430.179 573.069 430.948 572.633 431.55C572.198 432.151 571.608 432.596 570.865 432.885C570.126 433.174 569.293 433.318 568.365 433.318ZM568.343 427.075C568.954 427.075 569.47 426.933 569.892 426.649C570.318 426.36 570.64 425.948 570.858 425.413C571.08 424.874 571.191 424.227 571.191 423.474C571.191 422.741 571.083 422.094 570.865 421.536C570.647 420.977 570.327 420.541 569.906 420.229C569.484 419.911 568.964 419.753 568.343 419.753C567.704 419.753 567.172 419.919 566.745 420.25C566.319 420.577 565.997 421.022 565.779 421.585C565.566 422.149 565.46 422.778 565.46 423.474C565.46 424.189 565.569 424.817 565.787 425.357C566.004 425.896 566.326 426.318 566.752 426.621C567.183 426.924 567.714 427.075 568.343 427.075ZM499.899 443.05C499.761 442.619 499.577 442.233 499.345 441.892C499.118 441.546 498.845 441.253 498.528 441.011C498.211 440.765 497.849 440.578 497.441 440.45C497.039 440.322 496.596 440.259 496.113 440.259C495.294 440.259 494.556 440.469 493.897 440.891C493.239 441.312 492.718 441.93 492.335 442.744C491.956 443.554 491.767 444.546 491.767 445.72C491.767 446.899 491.958 447.896 492.342 448.71C492.725 449.525 493.251 450.143 493.919 450.564C494.586 450.985 495.346 451.196 496.199 451.196C496.989 451.196 497.678 451.035 498.265 450.713C498.857 450.391 499.314 449.937 499.636 449.349C499.963 448.758 500.126 448.062 500.126 447.261L500.694 447.368H496.532V445.557H502.25V447.212C502.25 448.433 501.989 449.494 501.468 450.393C500.952 451.288 500.237 451.98 499.324 452.467C498.414 452.955 497.373 453.199 496.199 453.199C494.882 453.199 493.727 452.896 492.733 452.29C491.743 451.684 490.971 450.824 490.417 449.712C489.863 448.594 489.586 447.268 489.586 445.734C489.586 444.574 489.747 443.533 490.069 442.609C490.391 441.686 490.843 440.902 491.426 440.259C492.013 439.61 492.702 439.115 493.493 438.774C494.288 438.429 495.157 438.256 496.099 438.256C496.885 438.256 497.617 438.372 498.294 438.604C498.975 438.836 499.582 439.165 500.112 439.591C500.647 440.017 501.09 440.524 501.44 441.111C501.79 441.693 502.027 442.339 502.15 443.05H499.899ZM513.567 453.22C512.492 453.22 511.566 452.991 510.79 452.531C510.018 452.067 509.421 451.416 509 450.578C508.583 449.735 508.375 448.748 508.375 447.616C508.375 446.499 508.583 445.514 509 444.662C509.421 443.81 510.009 443.144 510.761 442.666C511.519 442.188 512.404 441.949 513.418 441.949C514.033 441.949 514.63 442.051 515.207 442.254C515.785 442.458 516.304 442.777 516.763 443.213C517.222 443.649 517.584 444.214 517.849 444.911C518.115 445.602 518.247 446.442 518.247 447.432V448.185H509.575V446.594H516.166C516.166 446.035 516.053 445.54 515.825 445.109C515.598 444.674 515.278 444.33 514.866 444.08C514.459 443.829 513.981 443.703 513.432 443.703C512.835 443.703 512.314 443.85 511.869 444.143C511.429 444.432 511.088 444.811 510.847 445.28C510.61 445.744 510.491 446.248 510.491 446.793V448.036C510.491 448.765 510.619 449.385 510.875 449.896C511.135 450.408 511.498 450.798 511.962 451.068C512.426 451.333 512.968 451.466 513.588 451.466C513.991 451.466 514.357 451.409 514.689 451.295C515.02 451.177 515.307 451.002 515.548 450.77C515.79 450.538 515.974 450.251 516.102 449.911L518.112 450.273C517.951 450.865 517.662 451.383 517.246 451.828C516.834 452.268 516.315 452.612 515.69 452.858C515.07 453.099 514.362 453.22 513.567 453.22ZM531.514 448.476V442.091H533.645V453H531.556V451.111H531.443C531.192 451.693 530.789 452.179 530.235 452.567C529.686 452.95 529.002 453.142 528.183 453.142C527.482 453.142 526.862 452.988 526.322 452.68C525.787 452.368 525.366 451.906 525.058 451.295C524.755 450.685 524.603 449.929 524.603 449.03V442.091H526.727V448.774C526.727 449.518 526.933 450.109 527.345 450.55C527.757 450.99 528.292 451.21 528.95 451.21C529.348 451.21 529.743 451.111 530.136 450.912C530.534 450.713 530.863 450.412 531.123 450.01C531.388 449.607 531.519 449.096 531.514 448.476ZM540.498 453V442.091H542.536V443.866H542.671C542.898 443.265 543.27 442.796 543.786 442.46C544.302 442.119 544.92 441.949 545.64 441.949C546.369 441.949 546.98 442.119 547.472 442.46C547.969 442.801 548.336 443.27 548.573 443.866H548.687C548.947 443.284 549.362 442.82 549.93 442.474C550.498 442.124 551.175 441.949 551.961 441.949C552.951 441.949 553.758 442.259 554.383 442.879C555.013 443.5 555.327 444.435 555.327 445.685V453H553.204V445.884C553.204 445.145 553.003 444.61 552.6 444.278C552.198 443.947 551.717 443.781 551.158 443.781C550.467 443.781 549.93 443.994 549.546 444.42C549.163 444.842 548.971 445.384 548.971 446.047V453H546.854V445.749C546.854 445.157 546.67 444.681 546.3 444.321C545.931 443.961 545.451 443.781 544.859 443.781C544.456 443.781 544.085 443.888 543.744 444.101C543.407 444.309 543.135 444.6 542.927 444.974C542.723 445.348 542.621 445.782 542.621 446.274V453H540.498ZM562.174 442.091H564.297V453.71C564.297 454.439 564.165 455.055 563.9 455.557C563.639 456.059 563.251 456.44 562.735 456.7C562.223 456.961 561.591 457.091 560.838 457.091C560.763 457.091 560.692 457.091 560.625 457.091C560.554 457.091 560.481 457.089 560.405 457.084V455.259C560.471 455.259 560.531 455.259 560.583 455.259C560.63 455.259 560.685 455.259 560.746 455.259C561.248 455.259 561.61 455.124 561.833 454.854C562.06 454.589 562.174 454.203 562.174 453.696V442.091ZM563.225 440.408C562.855 440.408 562.538 440.285 562.273 440.038C562.013 439.787 561.882 439.489 561.882 439.143C561.882 438.793 562.013 438.495 562.273 438.249C562.538 437.998 562.855 437.872 563.225 437.872C563.594 437.872 563.909 437.998 564.169 438.249C564.435 438.495 564.567 438.793 564.567 439.143C564.567 439.489 564.435 439.787 564.169 440.038C563.909 440.285 563.594 440.408 563.225 440.408ZM571.154 453V442.091H573.278V453H571.154ZM572.227 440.408C571.857 440.408 571.54 440.285 571.275 440.038C571.014 439.787 570.884 439.489 570.884 439.143C570.884 438.793 571.014 438.495 571.275 438.249C571.54 437.998 571.857 437.872 572.227 437.872C572.596 437.872 572.911 437.998 573.171 438.249C573.436 438.495 573.569 438.793 573.569 439.143C573.569 439.489 573.436 439.787 573.171 440.038C572.911 440.285 572.596 440.408 572.227 440.408ZM501.871 466.276C501.795 465.603 501.483 465.082 500.934 464.713C500.384 464.339 499.693 464.152 498.86 464.152C498.263 464.152 497.747 464.247 497.311 464.436C496.876 464.621 496.537 464.876 496.296 465.203C496.059 465.525 495.941 465.892 495.941 466.304C495.941 466.65 496.021 466.948 496.182 467.199C496.348 467.45 496.563 467.661 496.828 467.831C497.098 467.997 497.387 468.136 497.695 468.25C498.003 468.359 498.299 468.449 498.583 468.52L500.003 468.889C500.467 469.003 500.943 469.157 501.431 469.351C501.918 469.545 502.371 469.801 502.787 470.118C503.204 470.435 503.54 470.828 503.796 471.297C504.056 471.766 504.186 472.327 504.186 472.98C504.186 473.804 503.973 474.536 503.547 475.175C503.126 475.814 502.513 476.318 501.708 476.688C500.908 477.057 499.939 477.241 498.803 477.241C497.714 477.241 496.772 477.069 495.976 476.723C495.181 476.377 494.558 475.887 494.108 475.253C493.658 474.614 493.41 473.856 493.363 472.98H495.564C495.607 473.506 495.777 473.944 496.076 474.294C496.379 474.64 496.765 474.898 497.233 475.068C497.707 475.234 498.225 475.317 498.789 475.317C499.409 475.317 499.961 475.22 500.444 475.026C500.931 474.827 501.315 474.552 501.594 474.202C501.873 473.847 502.013 473.432 502.013 472.959C502.013 472.528 501.89 472.175 501.644 471.901C501.402 471.626 501.073 471.399 500.657 471.219C500.245 471.039 499.778 470.88 499.257 470.743L497.539 470.274C496.374 469.957 495.451 469.491 494.769 468.875C494.092 468.259 493.753 467.445 493.753 466.432C493.753 465.594 493.98 464.862 494.435 464.237C494.89 463.612 495.505 463.127 496.282 462.781C497.058 462.431 497.934 462.256 498.909 462.256C499.894 462.256 500.763 462.429 501.516 462.774C502.274 463.12 502.87 463.596 503.306 464.202C503.741 464.803 503.969 465.494 503.988 466.276H501.871ZM511.981 481.091C511.664 481.091 511.375 481.065 511.114 481.013C510.854 480.965 510.66 480.913 510.532 480.857L511.043 479.116C511.432 479.221 511.777 479.266 512.08 479.251C512.383 479.237 512.651 479.124 512.883 478.911C513.12 478.697 513.328 478.349 513.508 477.866L513.771 477.142L509.779 466.091H512.052L514.815 474.557H514.928L517.691 466.091H519.971L515.475 478.456C515.267 479.024 515.002 479.505 514.68 479.898C514.358 480.295 513.974 480.594 513.529 480.793C513.084 480.991 512.568 481.091 511.981 481.091ZM534.141 468.754L532.217 469.095C532.136 468.849 532.008 468.615 531.833 468.392C531.663 468.17 531.431 467.987 531.137 467.845C530.844 467.703 530.477 467.632 530.036 467.632C529.435 467.632 528.933 467.767 528.531 468.037C528.128 468.302 527.927 468.645 527.927 469.067C527.927 469.431 528.062 469.725 528.332 469.947C528.602 470.17 529.037 470.352 529.638 470.494L531.371 470.892C532.375 471.124 533.123 471.482 533.616 471.964C534.108 472.447 534.354 473.075 534.354 473.847C534.354 474.5 534.165 475.082 533.786 475.594C533.412 476.1 532.889 476.498 532.217 476.787C531.549 477.076 530.775 477.22 529.894 477.22C528.673 477.22 527.676 476.96 526.904 476.439C526.132 475.913 525.659 475.168 525.484 474.202L527.536 473.889C527.664 474.424 527.927 474.829 528.325 475.104C528.722 475.374 529.241 475.509 529.88 475.509C530.576 475.509 531.132 475.364 531.549 475.075C531.966 474.782 532.174 474.424 532.174 474.003C532.174 473.662 532.046 473.375 531.79 473.143C531.54 472.911 531.154 472.736 530.633 472.618L528.786 472.213C527.768 471.981 527.015 471.612 526.528 471.105C526.045 470.598 525.803 469.957 525.803 469.18C525.803 468.536 525.983 467.973 526.343 467.49C526.703 467.007 527.2 466.631 527.835 466.361C528.469 466.086 529.196 465.949 530.015 465.949C531.194 465.949 532.122 466.205 532.799 466.716C533.476 467.223 533.924 467.902 534.141 468.754ZM545.782 466.091V467.795H539.823V466.091H545.782ZM541.421 463.477H543.544V473.797C543.544 474.209 543.606 474.519 543.729 474.727C543.852 474.931 544.011 475.071 544.205 475.146C544.404 475.217 544.619 475.253 544.851 475.253C545.022 475.253 545.171 475.241 545.299 475.217C545.426 475.194 545.526 475.175 545.597 475.161L545.98 476.915C545.857 476.962 545.682 477.009 545.455 477.057C545.228 477.109 544.944 477.137 544.603 477.142C544.044 477.152 543.523 477.052 543.04 476.844C542.557 476.635 542.167 476.313 541.868 475.878C541.57 475.442 541.421 474.895 541.421 474.237V463.477ZM556.715 477.22C555.64 477.22 554.715 476.991 553.938 476.531C553.166 476.067 552.57 475.416 552.148 474.578C551.732 473.735 551.523 472.748 551.523 471.616C551.523 470.499 551.732 469.514 552.148 468.662C552.57 467.81 553.157 467.144 553.91 466.666C554.667 466.188 555.553 465.949 556.566 465.949C557.182 465.949 557.778 466.051 558.356 466.254C558.933 466.458 559.452 466.777 559.911 467.213C560.371 467.649 560.733 468.214 560.998 468.911C561.263 469.602 561.396 470.442 561.396 471.432V472.185H552.724V470.594H559.315C559.315 470.035 559.201 469.54 558.974 469.109C558.746 468.674 558.427 468.33 558.015 468.08C557.608 467.829 557.129 467.703 556.58 467.703C555.984 467.703 555.463 467.85 555.018 468.143C554.577 468.432 554.237 468.811 553.995 469.28C553.758 469.744 553.64 470.248 553.64 470.793V472.036C553.64 472.765 553.768 473.385 554.023 473.896C554.284 474.408 554.646 474.798 555.11 475.068C555.574 475.333 556.116 475.466 556.737 475.466C557.139 475.466 557.506 475.409 557.837 475.295C558.169 475.177 558.455 475.002 558.697 474.77C558.938 474.538 559.123 474.251 559.251 473.911L561.261 474.273C561.1 474.865 560.811 475.383 560.394 475.828C559.982 476.268 559.464 476.612 558.839 476.858C558.219 477.099 557.511 477.22 556.715 477.22ZM567.752 477V466.091H569.79V467.866H569.925C570.152 467.265 570.524 466.796 571.04 466.46C571.556 466.119 572.174 465.949 572.894 465.949C573.623 465.949 574.234 466.119 574.726 466.46C575.223 466.801 575.59 467.27 575.827 467.866H575.941C576.201 467.284 576.615 466.82 577.184 466.474C577.752 466.124 578.429 465.949 579.215 465.949C580.204 465.949 581.012 466.259 581.637 466.879C582.266 467.5 582.581 468.435 582.581 469.685V477H580.458V469.884C580.458 469.145 580.257 468.61 579.854 468.278C579.452 467.947 578.971 467.781 578.412 467.781C577.721 467.781 577.184 467.994 576.8 468.42C576.417 468.842 576.225 469.384 576.225 470.047V477H574.108V469.749C574.108 469.157 573.924 468.681 573.554 468.321C573.185 467.961 572.704 467.781 572.113 467.781C571.71 467.781 571.338 467.888 570.998 468.101C570.661 468.309 570.389 468.6 570.181 468.974C569.977 469.348 569.875 469.782 569.875 470.274V477H567.752Z" fill="white"/>
<defs>
<filter id="filter0_d_920_17" x="-20" y="242" width="793" height="528" filterUnits="userSpaceOnUse" color-interpolation-filters="sRGB">
<feFlood flood-opacity="0" result="BackgroundImageFix"/>
<feColorMatrix in="SourceAlpha" type="matrix" values="0 0 0 0 0 0 0 0 0 0 0 0 0 0 0 0 0 0 127 0" result="hardAlpha"/>
<feOffset dx="10" dy="-8"/>
<feGaussianBlur stdDeviation="15"/>
<feComposite in2="hardAlpha" operator="out"/>
<feColorMatrix type="matrix" values="0 0 0 0 0.423529 0 0 0 0 0.290196 0 0 0 0 0.713726 0 0 0 1 0"/>
<feBlend mode="normal" in2="BackgroundImageFix" result="effect1_dropShadow_920_17"/>
<feBlend mode="normal" in="SourceGraphic" in2="effect1_dropShadow_920_17" result="shape"/>
</filter>
<filter id="filter1_d_920_17" x="-20" y="447" width="799" height="326" filterUnits="userSpaceOnUse" color-interpolation-filters="sRGB">
<feFlood flood-opacity="0" result="BackgroundImageFix"/>
<feColorMatrix in="SourceAlpha" type="matrix" values="0 0 0 0 0 0 0 0 0 0 0 0 0 0 0 0 0 0 127 0" result="hardAlpha"/>
<feOffset dx="10" dy="-5"/>
<feGaussianBlur stdDeviation="15"/>
<feComposite in2="hardAlpha" operator="out"/>
<feColorMatrix type="matrix" values="0 0 0 0 0.423529 0 0 0 0 0.290196 0 0 0 0 0.713726 0 0 0 1 0"/>
<feBlend mode="normal" in2="BackgroundImageFix" result="effect1_dropShadow_920_17"/>
<feBlend mode="normal" in="SourceGraphic" in2="effect1_dropShadow_920_17" result="shape"/>
</filter>
<filter id="filter2_d_920_17" x="11.0005" y="1.16943" width="732.025" height="273.278" filterUnits="userSpaceOnUse" color-interpolation-filters="sRGB">
<feFlood flood-opacity="0" result="BackgroundImageFix"/>
<feColorMatrix in="SourceAlpha" type="matrix" values="0 0 0 0 0 0 0 0 0 0 0 0 0 0 0 0 0 0 127 0" result="hardAlpha"/>
<feOffset dy="4"/>
<feGaussianBlur stdDeviation="2"/>
<feComposite in2="hardAlpha" operator="out"/>
<feColorMatrix type="matrix" values="0 0 0 0 0 0 0 0 0 0 0 0 0 0 0 0 0 0 0.25 0"/>
<feBlend mode="normal" in2="BackgroundImageFix" result="effect1_dropShadow_920_17"/>
<feBlend mode="normal" in="SourceGraphic" in2="effect1_dropShadow_920_17" result="shape"/>
</filter>
<filter id="filter3_d_920_17" x="264" y="84" width="210" height="210" filterUnits="userSpaceOnUse" color-interpolation-filters="sRGB">
<feFlood flood-opacity="0" result="BackgroundImageFix"/>
<feColorMatrix in="SourceAlpha" type="matrix" values="0 0 0 0 0 0 0 0 0 0 0 0 0 0 0 0 0 0 127 0" result="hardAlpha"/>
<feOffset dy="4"/>
<feGaussianBlur stdDeviation="2"/>
<feComposite in2="hardAlpha" operator="out"/>
<feColorMatrix type="matrix" values="0 0 0 0 0 0 0 0 0 0 0 0 0 0 0 0 0 0 0.25 0"/>
<feBlend mode="normal" in2="BackgroundImageFix" result="effect1_dropShadow_920_17"/>
<feBlend mode="normal" in="SourceGraphic" in2="effect1_dropShadow_920_17" result="shape"/>
</filter>
<linearGradient id="paint0_linear_920_17" x1="728.02" y1="745.089" x2="279.959" y2="173.11" gradientUnits="userSpaceOnUse">
<stop stop-color="#7D0647"/>
<stop offset="1" stop-color="#FF008A" stop-opacity="0"/>
</linearGradient>
<linearGradient id="paint1_linear_920_17" x1="0" y1="0" x2="739.362" y2="746.642" gradientUnits="userSpaceOnUse">
<stop stop-color="#5E6FCE"/>
<stop offset="1" stop-color="#B9E0FF" stop-opacity="0"/>
</linearGradient>
<linearGradient id="paint2_linear_920_17" x1="227.918" y1="748.001" x2="227.918" y2="566.685" gradientUnits="userSpaceOnUse">
<stop stop-color="#6C4AB6"/>
<stop offset="1" stop-color="#6C4AB6" stop-opacity="0"/>
</linearGradient>
<linearGradient id="paint3_linear_920_17" x1="0" y1="338.556" x2="0" y2="566.685" gradientUnits="userSpaceOnUse">
<stop stop-color="#B9E0FF"/>
<stop offset="1" stop-color="#B9E0FF" stop-opacity="0"/>
</linearGradient>
<linearGradient id="paint4_linear_920_17" x1="227.918" y1="748.001" x2="227.918" y2="566.685" gradientUnits="userSpaceOnUse">
<stop stop-color="#6C4AB6"/>
<stop offset="1" stop-color="#6C4AB6" stop-opacity="0"/>
</linearGradient>
<linearGradient id="paint5_linear_920_17" x1="0" y1="338.556" x2="0" y2="566.685" gradientUnits="userSpaceOnUse">
<stop stop-color="#B9E0FF"/>
<stop offset="1" stop-color="#B9E0FF" stop-opacity="0"/>
</linearGradient>
<linearGradient id="paint6_linear_920_17" x1="227.918" y1="748.001" x2="227.918" y2="566.685" gradientUnits="userSpaceOnUse">
<stop stop-color="#6C4AB6"/>
<stop offset="1" stop-color="#6C4AB6" stop-opacity="0"/>
</linearGradient>
<linearGradient id="paint7_linear_920_17" x1="0" y1="338.556" x2="0" y2="566.685" gradientUnits="userSpaceOnUse">
<stop stop-color="#B9E0FF"/>
<stop offset="1" stop-color="#B9E0FF" stop-opacity="0"/>
</linearGradient>
<linearGradient id="paint8_linear_920_17" x1="229.783" y1="748.001" x2="229.783" y2="644.945" gradientUnits="userSpaceOnUse">
<stop stop-color="#6C4AB6"/>
<stop offset="1" stop-color="#6C4AB6" stop-opacity="0"/>
</linearGradient>
<linearGradient id="paint9_linear_920_17" x1="0" y1="515.282" x2="0" y2="644.945" gradientUnits="userSpaceOnUse">
<stop stop-color="#B9E0FF"/>
<stop offset="1" stop-color="#B9E0FF" stop-opacity="0"/>
</linearGradient>
<linearGradient id="paint10_linear_920_17" x1="229.783" y1="748.001" x2="229.783" y2="644.945" gradientUnits="userSpaceOnUse">
<stop stop-color="#6C4AB6"/>
<stop offset="1" stop-color="#6C4AB6" stop-opacity="0"/>
</linearGradient>
<linearGradient id="paint11_linear_920_17" x1="0" y1="515.282" x2="0" y2="644.945" gradientUnits="userSpaceOnUse">
<stop stop-color="#B9E0FF"/>
<stop offset="1" stop-color="#B9E0FF" stop-opacity="0"/>
</linearGradient>
<linearGradient id="paint12_linear_920_17" x1="229.783" y1="748.001" x2="229.783" y2="644.945" gradientUnits="userSpaceOnUse">
<stop stop-color="#6C4AB6"/>
<stop offset="1" stop-color="#6C4AB6" stop-opacity="0"/>
</linearGradient>
<linearGradient id="paint13_linear_920_17" x1="0" y1="515.282" x2="0" y2="644.945" gradientUnits="userSpaceOnUse">
<stop stop-color="#B9E0FF"/>
<stop offset="1" stop-color="#B9E0FF" stop-opacity="0"/>
</linearGradient>
<linearGradient id="paint14_linear_920_17" x1="512.721" y1="1.80331" x2="513.383" y2="104.892" gradientUnits="userSpaceOnUse">
<stop stop-color="#6C4AB6"/>
<stop offset="1" stop-color="#6C4AB6" stop-opacity="0"/>
</linearGradient>
<linearGradient id="paint15_linear_920_17" x1="738.812" y1="233.155" x2="737.979" y2="103.45" gradientUnits="userSpaceOnUse">
<stop stop-color="#B9E0FF"/>
<stop offset="1" stop-color="#B9E0FF" stop-opacity="0"/>
</linearGradient>
<linearGradient id="paint16_linear_920_17" x1="512.721" y1="1.80331" x2="513.383" y2="104.892" gradientUnits="userSpaceOnUse">
<stop stop-color="#6C4AB6"/>
<stop offset="1" stop-color="#6C4AB6" stop-opacity="0"/>
</linearGradient>
<linearGradient id="paint17_linear_920_17" x1="738.812" y1="233.155" x2="737.979" y2="103.45" gradientUnits="userSpaceOnUse">
<stop stop-color="#B9E0FF"/>
<stop offset="1" stop-color="#B9E0FF" stop-opacity="0"/>
</linearGradient>
<linearGradient id="paint18_linear_920_17" x1="512.721" y1="1.80331" x2="513.383" y2="104.892" gradientUnits="userSpaceOnUse">
<stop stop-color="#6C4AB6"/>
<stop offset="1" stop-color="#6C4AB6" stop-opacity="0"/>
</linearGradient>
<linearGradient id="paint19_linear_920_17" x1="738.812" y1="233.155" x2="737.979" y2="103.45" gradientUnits="userSpaceOnUse">
<stop stop-color="#B9E0FF"/>
<stop offset="1" stop-color="#B9E0FF" stop-opacity="0"/>
</linearGradient>
<linearGradient id="paint20_linear_920_17" x1="728.005" y1="732.602" x2="316.825" y2="125.645" gradientUnits="userSpaceOnUse">
<stop stop-color="#FF008A"/>
<stop offset="1" stop-color="#FF008A" stop-opacity="0"/>
</linearGradient>
<linearGradient id="paint21_linear_920_17" x1="252.204" y1="99.7962" x2="394.37" y2="237.175" gradientUnits="userSpaceOnUse">
<stop stop-color="#B9E0FF"/>
<stop offset="1" stop-color="#B9E0FF" stop-opacity="0"/>
</linearGradient>
</defs>
</svg>
